<svg id="Layer_1" data-name="Layer 1" xmlns="http://www.w3.org/2000/svg" viewBox="0 0 789.4 112.1"><defs><style>.cls-1{fill:#005baa;}</style></defs><title>logo</title><path class="cls-1" d="M12.2,68.5V43.4c0-17.4-.1-27.7-.3-30.8C11.7,8,9.6,5.3,5.8,4.4A22.06,22.06,0,0,0,1,4Q-.2,4-.2,3.1C-.2,2.4.6,2,2.1,2c2.7,0,6.1.1,10.3.2s6.1.2,5.9.2c.9,0,3-.1,6.6-.2s6.5-.2,9-.2c10.3,0,18,2.7,23.1,8a19.25,19.25,0,0,1,5.4,13.4A28,28,0,0,1,58.3,38Q55.75,42.2,49,49.1a38.81,38.81,0,0,1,16.3,10,28.08,28.08,0,0,1,8.4,20.1,28.48,28.48,0,0,1-9,21.3c-6.8,6.6-15.9,9.8-27.4,9.8-1.2,0-4.7-.1-10.3-.4s-8.5-.4-8.7-.4c.1,0-1.8.1-5.7.2s-6.6.2-8.3.2c-1.5,0-2.3-.4-2.3-1.1s.5-.8,1.4-.8a21,21,0,0,0,4.1-.6c2.2-.5,3.6-3.1,4.1-7.9.4-3.7.6-14,.6-31M23.6,8.3V46.6a1.54,1.54,0,0,0,1,1.6,52.19,52.19,0,0,0,8.7.6,40.71,40.71,0,0,0,8.6-.6,8.76,8.76,0,0,0,4.4-3.1,21.14,21.14,0,0,0,5.1-14.4C51.4,24,49.9,18.5,47,14c-3.4-5.4-8.3-8-14.8-8a27.88,27.88,0,0,0-6.8.7c-1.2.3-1.8.8-1.8,1.6m0,45.2v8.1c0,19,.1,29.3.2,30.8.3,3.9.6,6.4,1,7.4a6.58,6.58,0,0,0,3.8,3.7c3,1.4,7.1,2.1,12.6,2.1a21.22,21.22,0,0,0,13-4.1c4.8-3.5,7.1-8.9,7.1-16.1,0-12.8-4.6-22.3-13.9-28.6a26.15,26.15,0,0,0-11.8-4.1q-2.1-.3-11.1-.3a1.09,1.09,0,0,0-.9,1.1" transform="translate(0.2 0.1)"/><path class="cls-1" d="M98.5,94.2,130.9,5.5c1.3-3.7,2.4-5.6,3.1-5.6s1.8,1.7,3.1,5.1q12.3,32.25,33.3,86.1c3.8,9.5,8.2,14.9,13.3,16.1a19.54,19.54,0,0,0,4.7.6c1,0,1.4.3,1.4.8,0,.8-.9,1.1-2.9,1.1-9.3,0-16.8-.1-22.4-.3-2.9-.1-4.3-.4-4.3-1s.3-.8,1-1c1.4-.4,1.7-1.7.9-3.8L148.8,68.5a1.38,1.38,0,0,0-1.3-.9H116.8c-.7,0-1.1.4-1.4,1.1L106.8,94a32.15,32.15,0,0,0-2,9.6c0,2.8,1.8,4.1,5.4,4.1h1.4c1,0,1.4.3,1.4.8,0,.8-.7,1.1-2.1,1.1s-3.4-.1-6.3-.2-4.5-.2-4.9-.2c-.1,0-2.1.1-6.1.2s-7.3.2-10,.2c-1.8,0-2.7-.4-2.7-1.1s.4-.8,1.3-.8a29.34,29.34,0,0,0,4.1-.3c5.1-.4,9.1-4.9,12.2-13.2m20-31.5h27.3c.6,0,.8-.3.6-1L132.8,23.1c-.4-1-.8-1.6-1.1-1.6s-.6.5-1,1.6L118,61.7c-.2.6,0,1,.5,1" transform="translate(0.2 0.1)"/><path class="cls-1" d="M202.1,64.2V43.4c0-17.4-.1-27.7-.3-30.8-.3-4.6-2.3-7.3-6.1-8.1a22.46,22.46,0,0,0-4.9-.4c-.8,0-1.1-.3-1.1-.8,0-.8.8-1.1,2.3-1.1,2.6,0,8,.1,16.4.4.2,0,2.2-.1,5.9-.2s6.5-.2,8.2-.2c1.5,0,2.3.4,2.3,1.1s-.3.8-.9.8-1.9.2-3.8.4c-3.2.5-5,3.2-5.3,8.1-.2,3.1-.3,13.4-.3,30.8v20c0,16.8,3.6,28.5,10.7,35.3q8.25,7.8,21.6,7.8c9.3,0,16.8-3.4,22.3-10.2s8.4-18.5,8.4-35.1V43.4c0-17.4-.1-27.7-.3-30.8-.3-4.6-2.3-7.3-6.1-8.1a23.05,23.05,0,0,0-4.9-.4c-.8,0-1.1-.3-1.1-.8,0-.8.7-1.1,2.3-1.1,2.6,0,5.8.1,9.6.2s5.7.2,5.5.2c.1,0,1.7-.1,4.8-.2s5.5-.2,7.2-.2c1.5,0,2.3.4,2.3,1.1s-.4.8-1.3.8a27.53,27.53,0,0,0-3.4.4c-3.2.7-5,3.4-5.3,8.1-.2,3.1-.3,13.4-.3,30.8V58.7c0,20.7-4.4,34.9-13.1,42.7-7.9,7-17.7,10.6-29.4,10.6-12.5,0-22.3-3.4-29.4-10.1-8.3-8-12.5-20.5-12.5-37.7" transform="translate(0.2 0.1)"/><path class="cls-1" d="M326.6,72.8a2.67,2.67,0,0,1-2.7-2.6V42.4a2.61,2.61,0,0,1,2.7-2.6h1.1V38.3h-12v1.5h1.1a2.67,2.67,0,0,1,2.7,2.6V70.1a2.69,2.69,0,0,1-2.7,2.7h-1.1v1.5h12V72.8Z" transform="translate(0.2 0.1)"/><path class="cls-1" d="M364.2,39.8h1.4a2.56,2.56,0,0,1,2.6,2.5V65.8L341.7,37.5h-1.3l.1.6a39.38,39.38,0,0,1,.5,6.2v26a2.56,2.56,0,0,1-2.6,2.5H337v1.5h11.3V72.8h-1.4a2.63,2.63,0,0,1-2.6-2.5V46.6L370.8,75H372l-.1-.6a47,47,0,0,1-.5-6.3V42.3a2.56,2.56,0,0,1,2.6-2.5h1.4V38.3H364.1Z" transform="translate(0.2 0.1)"/><path class="cls-1" d="M406.2,38.2H389.3a18.41,18.41,0,0,1-5.8-.9l-.7-.3v7.5h1.5V43.1a2.52,2.52,0,0,1,2.4-2.5h9V70.1a2.74,2.74,0,0,1-2.7,2.6h-1.1v1.5h12V72.7h-1.1a2.67,2.67,0,0,1-2.7-2.6V40.7h9a2.52,2.52,0,0,1,2.4,2.5v1.4H413V37l-.7.3A22.53,22.53,0,0,1,406.2,38.2Z" transform="translate(0.2 0.1)"/><path class="cls-1" d="M443.8,65.5c-1.6,3.8-3.5,6.2-8.4,6.2h-6.7v-14h8a1.92,1.92,0,0,1,1.9,2v1.2h1.5V52h-1.5v1.2a2.06,2.06,0,0,1-1.9,2h-8V40.8h9.7a2.51,2.51,0,0,1,2.3,2.5v1.4h1.5V37.1l-.7.3a27.1,27.1,0,0,1-5.8.9H420.6v1.5h1.1a2.71,2.71,0,0,1,2.7,2.4v28a2.69,2.69,0,0,1-2.7,2.7h-1.1v1.5h21.6l3.3-9.1H444Z" transform="translate(0.2 0.1)"/><path class="cls-1" d="M479.5,69.1c-1.9-2.1-6.2-8.2-6.2-8.2a14.23,14.23,0,0,0-2.6-2.9c4.6-.8,7.6-5.5,7.6-9.9,0-6.1-3.9-9.9-10.3-9.9H454v1.5h1.1a2.67,2.67,0,0,1,2.7,2.6V70a2.61,2.61,0,0,1-2.7,2.6H454v1.5h11.9V72.6h-1.1a2.67,2.67,0,0,1-2.7-2.6V40.8h.7c1.3,0,3.3-.1,5,0,3.5.2,5.6,2.9,5.7,7.1a10.88,10.88,0,0,1-.3,2.8c-1.3,4.2-4.8,4.8-7.3,4.8h-3.1V57h.5c1.5,0,2.9,1.5,4.2,3.2.1.2,1.3,1.8,2.4,3.5,2.2,3.1,3.8,5.5,4.2,5.9,1.8,2.1,4.4,4.6,9.1,4.6h3.2V72.7h-.5C483.3,72.7,481.5,71.4,479.5,69.1Z" transform="translate(0.2 0.1)"/><path class="cls-1" d="M517.9,39.8h1.4a2.56,2.56,0,0,1,2.6,2.5V65.8L495.4,37.5h-1.3l.1.6a39.38,39.38,0,0,1,.5,6.2v26a2.56,2.56,0,0,1-2.6,2.5h-1.4v1.5H502V72.8h-1.4a2.63,2.63,0,0,1-2.6-2.5V46.6L524.4,75h1.2l-.1-.6a47,47,0,0,1-.5-6.3V42.3a2.56,2.56,0,0,1,2.6-2.5H529V38.3H517.7Z" transform="translate(0.2 0.1)"/><path class="cls-1" d="M566.9,69.9l-13.4-32-.1-.3h-1.3v.5a26.06,26.06,0,0,1-1.8,5L539,69.9a4.6,4.6,0,0,1-3.9,2.9h-1v1.5h11.1V72.8h-.9a1.56,1.56,0,0,1-1.3-.7,1.88,1.88,0,0,1-.1-1.8l3.2-8.2h12.8l3.1,8.2a1.88,1.88,0,0,1-.1,1.8,1.71,1.71,0,0,1-1.3.7h-.9v1.5H572V72.8h-.9A4.64,4.64,0,0,1,566.9,69.9Zm-9-10.3H547l5.5-14.2Z" transform="translate(0.2 0.1)"/><path class="cls-1" d="M596.2,38.2H579.3a18.41,18.41,0,0,1-5.8-.9l-.7-.3v7.5h1.5V43.1a2.52,2.52,0,0,1,2.4-2.5h9V70.1a2.74,2.74,0,0,1-2.7,2.6h-1.1v1.5h12V72.7h-1.1a2.67,2.67,0,0,1-2.7-2.6V40.7h9a2.52,2.52,0,0,1,2.4,2.5v1.4H603V37l-.7.3A22.53,22.53,0,0,1,596.2,38.2Z" transform="translate(0.2 0.1)"/><path class="cls-1" d="M621.4,72.8a2.67,2.67,0,0,1-2.7-2.6V42.4a2.61,2.61,0,0,1,2.7-2.6h1.1V38.3h-12v1.5h1.1a2.67,2.67,0,0,1,2.7,2.6V70.1a2.69,2.69,0,0,1-2.7,2.7h-1.1v1.5h12V72.8Z" transform="translate(0.2 0.1)"/><path class="cls-1" d="M650.5,37.6c-11,0-18.5,7.5-18.5,18.7S639.5,75,650.5,75,669,67.4,669,56.3,661.6,37.6,650.5,37.6Zm0,34.9c-8.2,0-13.6-6.5-13.6-16.2s5.5-16.2,13.6-16.2,13.6,6.5,13.6,16.2S658.7,72.5,650.5,72.5Z" transform="translate(0.2 0.1)"/><path class="cls-1" d="M704,39.8h1.4a2.56,2.56,0,0,1,2.6,2.5V65.8L681.5,37.5h-1.3l.1.6a39.38,39.38,0,0,1,.5,6.2v26a2.56,2.56,0,0,1-2.6,2.5h-1.4v1.5H688V72.8h-1.4a2.63,2.63,0,0,1-2.6-2.5V46.6L710.5,75h1.2l-.1-.6a47,47,0,0,1-.5-6.3V42.3a2.56,2.56,0,0,1,2.6-2.5h1.4V38.3H704Z" transform="translate(0.2 0.1)"/><path class="cls-1" d="M753,69.9l-13.4-32-.1-.3h-1.3v.5a26.06,26.06,0,0,1-1.8,5L725.1,70a4.6,4.6,0,0,1-3.9,2.9h-1v1.5h11.1V72.9h-.9a1.56,1.56,0,0,1-1.3-.7,1.88,1.88,0,0,1-.1-1.8l3.2-8.2H745l3.1,8.2a1.88,1.88,0,0,1-.1,1.8,1.71,1.71,0,0,1-1.3.7h-.9v1.5h12.3V72.9H757A4.93,4.93,0,0,1,753,69.9Zm-9-10.3H733.1l5.5-14.2Z" transform="translate(0.2 0.1)"/><path class="cls-1" d="M787.7,65.2l-.1.3c-1.6,3.8-3.5,6.2-8.4,6.2h-6.7V42.4a2.69,2.69,0,0,1,2.7-2.7h1.1V38.2h-12v1.5h1.1a2.67,2.67,0,0,1,2.7,2.6V70a2.69,2.69,0,0,1-2.7,2.7h-1.1v1.5h21.6l3.3-9.1Z" transform="translate(0.2 0.1)"/></svg>