<?xml version="1.0" encoding="UTF-8"?>
<svg id="katman_1" xmlns="http://www.w3.org/2000/svg" version="1.1" viewBox="0 0 556.61 215.13">
  <!-- Generator: Adobe Illustrator 29.5.0, SVG Export Plug-In . SVG Version: 2.1.0 Build 137)  -->
  <defs>
    <style>
      .st0, .st1 {
        fill: none;
      }

      .st1 {
        stroke: #000;
        stroke-miterlimit: 10;
        stroke-width: .19px;
      }

      .st2 {
        fill: #1f284c;
      }
    </style>
  </defs>
  <g>
    <g>
      <path class="st2" d="M150.66,75.98l-.06-.07c.35,4.3.37,8.98-.2,13.74-.46,3.83-1.3,7.71-2.65,11.48-.5,1.4-1.07,2.78-1.72,4.14.08.95.12,1.91.12,2.88,0,.79-.04,1.57-.09,2.35,0-.01.02-.02.03-.03,1.66-2.1,2.34-4.81,1.98-7.46.2,1.35.32,2.73.37,4.12.68-1.08,1.31-2.18,1.88-3.31,2.22-4.34,2.3-9.5.21-13.9,1.08,2.24,1.98,4.58,2.66,7.02.48-1.44.9-2.9,1.27-4.36,1.47-5.8.06-12.01-3.79-16.59Z"/>
      <path class="st2" d="M84.56,127.66c-.71.02-1.43.02-2.16.02-2.42-.01-4.95-.14-7.43-.35-3.36-.29-6.65-.74-9.53-1.3,0,.02.02.04.03.07,1.48,3.85,5.38,6.23,9.48,5.86.87-.08,1.73-.17,2.57-.26-.91-1.35-1.73-2.77-2.48-4.23,1.38,2.61,4.31,4.04,7.24,3.59.77-.12,1.53-.24,2.28-.36-.44-.54-.85-1.1-1.25-1.67.76,1.03,2.05,1.54,3.32,1.33h.02c-.74-.86-1.45-1.76-2.1-2.69Z"/>
      <path class="st2" d="M162.05,102.68c0-.09-.02-.18-.03-.26-2.25,3.42-4.76,6.24-7.4,8.65-2.3,2.11-4.71,3.91-7.16,5.52-.97.64-1.95,1.26-2.93,1.86-.37,1.17-.81,2.31-1.31,3.43.01,0,.02,0,.03,0,1.82-.59,3.24-2.03,3.82-3.83-.27.96-.56,1.9-.91,2.82.63-.23,1.25-.47,1.86-.72,3.7-1.5,6.29-4.96,6.58-8.93-.15,2.14-.45,4.23-.91,6.26.22-.12.44-.24.65-.36,5.16-2.9,8.22-8.54,7.69-14.43Z"/>
      <path class="st2" d="M158.3,88.23l-.04-.09c-1.1,4.66-2.55,8.74-4.24,12.31-1.66,3.5-3.56,6.51-5.61,9.1-.84,1.07-1.71,2.07-2.59,3-.19,1.42-.47,2.82-.83,4.18,0,0,.02-.01.03-.02,1.87-1.18,3.05-3.19,3.27-5.39-.1,1.17-.26,2.32-.47,3.45.4-.3.8-.61,1.19-.93,3.94-3.17,5.9-8.25,5.04-13.22.43,2.43.68,4.92.68,7.47,0,.07,0,.14,0,.21.35-.41.7-.84,1.04-1.27,4.2-5.33,5.22-12.57,2.54-18.81Z"/>
      <path class="st2" d="M79.97,118.46c-.73-.44-1.45-.89-2.18-1.36-2.46-1.59-4.89-3.35-7.22-5.4-2.9-2.55-5.64-5.56-8.08-9.27,0,.08-.02.16-.03.26-.53,5.83,2.43,11.45,7.52,14.33.51.29,1.02.57,1.55.84-.46-1.96-.77-3.98-.95-6.04.34,3.84,2.89,7.14,6.47,8.55.67.26,1.34.52,2.03.76-.28-.73-.53-1.46-.76-2.21.47,1.39,1.54,2.51,2.94,2.96h.02c-.49-1.11-.93-2.25-1.31-3.42Z"/>
      <path class="st2" d="M83.76,126.52h.02c-.69-1.06-1.32-2.16-1.88-3.3-.73-.18-1.47-.38-2.21-.58-2.55-.71-5.11-1.58-7.6-2.59-3.35-1.37-6.57-3-9.44-4.87,0,.03,0,.05.01.08.69,4.88,4.45,8.74,9.27,9.75.71.15,1.42.28,2.12.41-.76-1.7-1.4-3.46-1.93-5.26.98,3.3,3.91,5.65,7.35,6.02.72.08,1.43.14,2.12.2-.38-.65-.73-1.31-1.07-1.98.64,1.23,1.86,2.05,3.24,2.14Z"/>
      <path class="st2" d="M78.49,105.26c-.47-.99-.9-1.99-1.29-3-1.47-3.78-2.42-7.68-2.95-11.56-.71-5.12-.72-10.18-.34-14.8-.02.02-.04.05-.06.07-3.92,4.68-5.23,11.01-3.71,16.93.44,1.7.95,3.39,1.54,5.06.61-2.43,1.44-4.78,2.46-7.02-1.96,4.43-1.76,9.56.56,13.82.61,1.12,1.27,2.22,1.99,3.29,0-1.02.06-2.03.15-3.02-.17,1.94.38,3.9,1.59,5.43l.02.02c-.05-.78-.09-1.56-.09-2.35,0-.97.05-1.93.13-2.88Z"/>
      <path class="st2" d="M146.41,133.4c-2.41-.42-4.77-.88-6.99-1.35-.89-.19-1.77-.38-2.61-.58-.77.81-1.59,1.59-2.44,2.33,0,0,.02,0,.02,0,1.46.58,3.1.21,4.21-.89-.59.63-1.2,1.24-1.83,1.82.72.28,1.45.55,2.2.83,2.63.97,5.62.17,7.33-2.04-.94,1.25-1.94,2.44-3.01,3.57.83.28,1.68.56,2.55.84,3.32,1.06,6.98-.23,8.84-3.18l.03-.05c-2.73-.37-5.55-.82-8.32-1.3Z"/>
      <path class="st2" d="M153.14,119.73c-2.48,1.05-5.04,1.95-7.59,2.69-.98.29-1.96.55-2.94.79-.57,1.14-1.2,2.24-1.88,3.3,0,0,.02,0,.03,0,1.75-.11,3.31-1.13,4.13-2.67-.4.83-.83,1.65-1.29,2.45.65-.06,1.31-.13,1.99-.2,3.54-.4,6.54-2.84,7.53-6.26-.53,1.87-1.19,3.69-1.96,5.44.51-.1,1.02-.2,1.54-.3,4.78-1.01,8.48-4.89,9.16-9.72v-.08c-2.65,1.74-5.62,3.26-8.71,4.57Z"/>
      <path class="st2" d="M78.68,112.71c-.65-.68-1.28-1.39-1.9-2.14-2.12-2.55-4.09-5.53-5.82-9-1.9-3.8-3.51-8.18-4.71-13.26-.01.03-.03.06-.04.09-2.65,6.17-1.72,13.35,2.41,18.64.59.75,1.2,1.48,1.83,2.18,0-.32-.02-.64-.02-.96,0-2.14.17-4.24.48-6.29-.62,4.77,1.36,9.53,5.15,12.49.45.35.91.69,1.37,1.02-.17-.85-.31-1.71-.42-2.59.22,1.63,1.1,3.11,2.49,3.98h.02c-.36-1.35-.64-2.75-.83-4.17Z"/>
      <path class="st2" d="M87.69,131.47c-.67.16-1.36.31-2.07.47-2.2.48-4.55.94-6.96,1.37-2.94.53-5.96,1-8.88,1.4.01.02.02.03.03.05,1.86,2.96,5.52,4.24,8.85,3.18,1.03-.33,2.04-.66,3.02-1-1.04-1.12-2.02-2.3-2.93-3.52,1.67,2.18,4.59,2.97,7.17,2.01.77-.29,1.52-.57,2.26-.86.66-.26,1.31-.51,1.95-.77-.85-.74-1.66-1.51-2.44-2.33Z"/>
      <path class="st2" d="M150.2,127.26c-2.48.23-5.01.37-7.45.4-.95.01-1.88.01-2.8,0-.66.93-1.36,1.83-2.1,2.68,0,0,.02,0,.03,0,1.63.28,3.25-.41,4.23-1.73-.51.74-1.04,1.47-1.6,2.17.72.12,1.44.23,2.18.34,3.05.45,6.08-1.05,7.49-3.79-.78,1.53-1.63,3.01-2.58,4.42.63.07,1.28.13,1.93.19,4.12.37,8.04-1.99,9.52-5.86l.02-.07c-2.68.52-5.73.95-8.86,1.24Z"/>
      <path class="st2" d="M101.69,59.5c-4.17.88-8.15,2.29-11.87,4.14-8.43,4.2-13.77,12.91-13.78,22.34,0,.46,0,.92.01,1.38.92-1.57,1.94-3.07,3.05-4.5-2.11,3.41-2.91,7.53-2.29,11.55.25,1.64.59,3.27,1.01,4.87.29-1.11.63-2.19,1.01-3.25-.75,2.1-.77,4.4-.03,6.5v.03c.28-1.62.66-3.2,1.15-4.73-.24-1.07-.42-2.16-.56-3.27-.16-1.32-.25-2.66-.25-4.02,0-3.4.52-6.68,1.47-9.77,0,0,0,0,0,0,3.22-10.02,11.08-17.97,21.06-21.28Z"/>
      <path class="st2" d="M148.35,85.85c.02-9.77-5.68-18.66-14.49-22.87-3.51-1.68-7.24-2.96-11.14-3.79,9.72,3.23,17.44,10.85,20.81,20.5,1.18,3.4,1.83,7.05,1.83,10.85,0,.96-.05,1.9-.14,2.84-.13,1.51-.35,3-.68,4.45.49,1.53.87,3.11,1.14,4.73,0-.01.01-.03.02-.04,1.02-2.88.88-6.06-.35-8.86.64,1.43,1.19,2.9,1.64,4.42.35-1.51.63-3.04.84-4.58.63-4.59-.61-9.26-3.46-12.86,1.47,1.68,2.81,3.47,3.99,5.37,0-.05,0-.1,0-.15Z"/>
      <path class="st2" d="M128.74,123.24c0-.9-.02-1.8-.01-2.7,0-.81-.36-1.28-1.16-1.53-.28-.09-.56-.17-.84-.25-.36-.11-.73-.21-1.09-.33-4.22-1.34-8.36-3.19-12.31-5.5l-.16-.09h-.78l-.3.17c-.1.05-.19.11-.29.16-4.32,2.53-8.92,4.48-13.67,5.79-.97.27-1.31.73-1.31,1.75v7.2c0,2.93.42,5.56,1.29,8.04,1.13,3.21,2.91,6.06,5.3,8.47,2.31,2.33,4.75,4.01,7.45,5.12.64.27,1.28.4,1.91.4s1.27-.13,1.91-.4c2.33-.96,4.47-2.35,6.52-4.23,4.6-4.23,7.11-9.49,7.45-15.65.12-2.15.1-4.32.08-6.43ZM112.48,114.34c.09-.05.17-.1.26-.15h.06c1.35.78,2.72,1.51,4.1,2.19.16,2.03.22,7.02-.2,8.76-.12.49-.26.98-.41,1.46-.89.08-1.79.15-2.68.23-.02,0-.04,0-.06,0-.3,0-.61,0-.91,0-.31,0-.63,0-.94-.01-.03-.02-.05-.01-.08,0-.02,0-.03,0-.05,0-.03-.02-.05-.01-.08,0-.02,0-.03,0-.05,0-.42-.03-.84-.08-1.27-.1-.22,0-.4-.15-.47-.36-.06-.21-.16-.41-.25-.61,0-.03,0-.05-.03-.07,0-.01,0-.03-.01-.04-.14-.42-.29-.83-.42-1.26-.15-.49-.28-.98-.39-1.48-.13-.59-.22-1.18-.29-1.78-.05-.47-.41-3.21-.52-4.31,1.59-.75,3.15-1.56,4.67-2.46ZM114.32,130.83s0,0-.01,0c-.28.43-.57.86-.88,1.27-.09.12-.09.12-.18.01-.45-.51-.84-1.06-1.24-1.6-.03-.04-.05-.1-.09-.13-.35-.54-.71-1.09-1.03-1.65-.07-.13-.15-.27-.23-.42.34,0,.67.05,1,.04h0s.05.01.08,0c.02,0,.03,0,.05,0,.02.02.05.01.08,0,.02,0,.05,0,.07,0,.03.01.05.02.08,0,.22,0,.44.01.66.01.4,0,.81,0,1.21-.02.44,0,.89-.03,1.33-.08.15-.01.3,0,.47-.04-.13.29-.26.56-.38.83-.3.58-.62,1.15-.96,1.71,0,.01-.01.02-.02.03,0,0-.01.01-.01.02,0,0,0,0,.01,0ZM99.39,135.51c-.82-2.33-1.22-4.82-1.21-7.59v-7.2c0-.25.02-.34.01-.34.01-.01.08-.05.3-.11,2.65-.74,5.26-1.67,7.8-2.78.12,1.02.47,3.53.51,3.87.09.76.23,1.52.41,2.27.16.66.34,1.3.56,1.94.1.28.2.57.31.87-.24-.04-.46-.08-.69-.12-.05-.01-.1-.02-.16-.03-.55-.11-1.1-.26-1.65-.4,0,0-.02,0-.03-.01,0,0-.02,0-.03,0-.2-.06-.4-.12-.59-.19-.07-.03-.1-.01-.13.06-.09.29-.22.55-.38.81-.11.17-.24.31-.36.47.17.06.33.11.49.16.38.12.76.24,1.16.33.22.08.46.12.69.17.4.09.8.18,1.21.24.02,0,.04.01.06.02.35.05.7.11,1.05.16.06,0,.11.05.14.1.1.2.2.4.3.6.27.52.55,1.03.87,1.52,0,0,0,.02.01.02,0,0,.01.02.02.03.03.05.05.09.08.14.31.49.64.97.98,1.44.36.48.72.96,1.13,1.4,0,0,0,.01.01.02,0,0,.02.02.02.02.01.03.04.05.01.08-.02,0,0,0-.02,0-.47.57-1.02,1.06-1.55,1.57-.13.11-.27.22-.4.34-.43.37-.89.7-1.35,1.03-.47.31-.95.61-1.43.89-.07.04-.14.07-.21.11-.34.17-.68.35-1.02.52-.05.03-.11.01-.14-.04-.18-.25-.37-.5-.55-.75-.67-.96-1.24-1.98-1.73-3.04-.16-.35-.31-.7-.44-1.07,0-.03,0-.05-.03-.07-.03-.09-.07-.19-.1-.28,0-.03,0-.05-.03-.07,0-.02,0-.03-.01-.05,0-.03,0-.06-.03-.07,0-.02-.01-.05-.02-.07,0-.03,0-.05-.03-.07,0-.02-.01-.05-.02-.07,0-.03,0-.05-.03-.07,0-.01,0-.03-.01-.04-.07-.23-.14-.45-.2-.68-.2-.75-.35-1.51-.45-2.28-.06-.42-.1-1.12-.11-1.55,0-.14,0-.29-.01-.43,0-.09-.05-.21.09-.25.56-.2.97-.58,1.26-1.09.24-.41.34-.88.3-1.36-.06-.72-.36-1.33-.96-1.78-.32-.24-.67-.4-1.06-.48-.14-.03-.27-.02-.41-.03-.4-.02-.78.08-1.13.27-.03.01-.05.02-.08.03-.91.5-1.45,1.59-1.21,2.67.18.78.62,1.36,1.35,1.69.19.09.31.27.31.48-.02.52.02,1.03.07,1.55.06.66.17,1.32.3,1.97.12.59.28,1.18.47,1.75.14.43.28.85.46,1.26,0,.02.02.05.02.07,0,0,.01.02.02.03.01.04.02.07.03.11.27.66.57,1.31.92,1.94.22.39.43.79.68,1.16,0,0,0,.02.01.03,0,0,.01.02.02.02.04.06.07.12.11.18,0,0,.01.01.02.02,0,0,0,.02.01.02,0,0,.01.02.02.02.19.34.42.64.66.95.06.08.04.1-.04.13-.14.04-.29.09-.43.14-.04,0-.07,0-.1.03-.02,0-.05.01-.07.02-.37.1-.73.19-1.1.29-.24.04-.48.07-.71.14-.04.01-.57.1-1.03.17-.72-1.21-1.32-2.49-1.79-3.84ZM120.29,144.33c-1.93,1.78-3.94,3.08-6.12,3.98-.95.39-1.84.39-2.79,0-2.53-1.04-4.82-2.62-7.01-4.82-.85-.85-1.61-1.77-2.29-2.74.48-.08,1.26-.2,1.28-.22.32-.06.64-.14.95-.25.02,0,.03,0,.05,0,.41-.11.82-.25,1.22-.4.07-.03.12-.04.17-.03.07.02.11.07.12.09.13.17,1.28,1.14,1.5,1.31,1.05.85,2.44,1.2,2.52,1.26,0,0,.02.02.05.02.02,0,.03-.03.05-.05.19-.24.4-.46.64-.64.16-.13.34-.23.52-.33-.34-.14-.83-.34-1.42-.61-.51-.23-.77-.36-1.02-.5-.65-.35-1.08-.67-1.38-1.16,0,0,0,0,0,0-.02-.03-.03-.05-.04-.07,0-.02.02-.03.06-.05.15-.07.3-.16.45-.24h0c.51-.25,1-.53,1.46-.84,0,0,.02,0,.02-.01,0,0,.02-.01.02-.02.61-.38,1.19-.8,1.75-1.26.13-.1.26-.21.39-.31.41-.35.81-.7,1.18-1.09.24-.22.46-.46.67-.69.04-.04.09-.04.13,0,.25.25.51.51.77.75.31.29.61.58.95.83.49.43,1.01.82,1.55,1.19,0,0,0,.01.02,0,.01,0,.02.01.03.02.32.25.67.46,1.02.68.02,0,.05.03.07.07.03.08-.01.16-.03.2-.51.94-1.74,2.34-1.74,2.34s-.79.89-1.84,1.6c-.04.03-.07.03-.09.03-.03,0-.06-.01-.09-.03-.45-.3-.95-.39-1.48-.33-.13-.03-.25.03-.37.06-.37.09-.7.26-.99.52-.03.02-.05.04-.08.06-.78.71-1,1.89-.53,2.85.28.57.71.99,1.31,1.21.27.13.57.18.87.18.23,0,.46-.01.67-.09.05-.01.1-.02.14-.03.5-.17.9-.46,1.21-.88.46-.64.59-1.36.38-2.12-.02-.07-.03-.13,0-.17.03-.05.09-.07.1-.08.15-.06,1.42-1.06,2.27-2.18.14-.19,1.48-1.98,1.6-2.24,0-.02.04-.1.11-.11.07-.02.14.04.16.05.47.23.93.46,1.42.63.38.17,1.99.67,2.75.91-.93,1.33-2.02,2.58-3.29,3.75ZM127.31,129.59c-.2,3.53-1.15,6.74-2.84,9.61-.54-.14-1.37-.39-1.48-.41-.29-.1-.58-.19-.87-.29-.51-.17-1-.39-1.5-.6-.13-.06-.25-.13-.38-.19-.08-.04-.09-.07-.04-.14.21-.33.42-.67.61-1.02.35-.59.64-1.2.93-1.81.16-.35.31-.69.44-1.05.01-.03.03-.05.04-.08.67-1.73,1.13-3.52,1.32-5.37.01-.1.06-.22,0-.28-.05-.06-.17-.05-.26-.07,0,0-.02,0-.02,0-.43-.1-.82-.27-1.19-.53,0,.05,0,.08-.01.12-.04.57-.11,1.13-.2,1.69-.07.42-.16.83-.25,1.25,0,.02-.02.04-.02.06-.16.64-.34,1.27-.56,1.89-.19.56-.42,1.1-.65,1.64,0,0,0,.02-.01.03,0,0,0,.02,0,.02-.01.02-.02.03-.03.05-.42.93-.91,1.82-1.45,2.68-.05.07-.14.09-.22.05-.26-.17-.54-.32-.79-.5-.46-.34-.94-.65-1.38-1.01-.55-.46-1.09-.93-1.6-1.42-.14-.15-.28-.29-.43-.44-.06-.06-.08-.1-.01-.17.11-.13.21-.28.31-.41.34-.45.68-.92.96-1.41l.02-.03s.01-.02.02-.03c.39-.62.74-1.26,1.05-1.93.2-.39.37-.79.53-1.2.07-.18.13-.33.36-.31.05,0,.11-.02.17-.03.31-.06.62-.11.92-.2.04,0,.08-.01.12-.02l.09-.02c.59-.14,1.18-.3,1.76-.49.29-.09.58-.19.86-.32.27-.09.53-.21.79-.33.07-.03.12-.04.19.02.23.17.49.3.77.37.92.25,1.89,0,2.55-.8.6-.74.73-1.56.4-2.44-.24-.64-.75-1.15-1.39-1.4-.78-.31-1.52-.23-2.23.22-.02.01-.04.02-.06.03-.79.58-1.14,1.36-1.03,2.34.01.1.07.21.04.29-.03.08-.17.08-.25.14,0,0,0,0,0,0-.02,0-.04,0-.06.01-.87.37-1.78.63-2.7.86-.2.04-.41.09-.62.13.53-1.88.58-6.91.5-9.2,2.21,1.01,4.46,1.88,6.73,2.6.37.12.74.23,1.11.33.28.08.55.16.83.25.12.04.17.07.18.07h0s.01.07.01.17c0,.9,0,1.81.02,2.71.02,2.08.04,4.24-.08,6.34Z"/>
      <g>
        <path class="st0" d="M131.82,116.08c-.84-.26-1.69-.49-2.53-.76-5.69-1.8-11.1-4.25-16.25-7.26h-.55c-.18.1-.37.2-.55.31-5.69,3.33-11.7,5.89-18.05,7.65-.88.24-1.06.51-1.06,1.44,0,3.13,0,6.27,0,9.4,0,3.49.48,6.9,1.64,10.2,1.43,4.08,3.67,7.66,6.71,10.73,2.73,2.76,5.82,5,9.43,6.49,1.46.6,2.86.6,4.32,0,3.09-1.27,5.8-3.11,8.25-5.36,5.81-5.34,9.01-11.97,9.44-19.83.22-3.94.07-7.91.08-11.86,0-.67-.23-.95-.88-1.15Z"/>
        <path class="st2" d="M141.94,138.49c-2.01-.87-4.06-1.79-6.26-2.79-.75-.35-1.52-.7-2.31-1.07-.01.01-.03.02-.04.03.12-.52.22-1.04.32-1.57.12-.09.24-.17.35-.27,4.04-3.2,7.53-7.76,9.52-14.09,1.89-5.99,2.11-16.21-.1-21.1-3.16,3.36-4.51,8.24-3.76,12.84-.67-2.39-.83-4.97-.36-7.49.22-1.18.58-2.33,1.07-3.44l-3.95,3.76c-.88,2.47-1.14,5.18-.71,7.8-.6-2.13-.79-4.41-.49-6.66l-1.64,1.56c-1.4,1.33-2.29,3.09-2.57,5-.13.88-.32,1.93-.6,3.06-.23-.07-.46-.13-.69-.21-2.1-.66-4.18-1.43-6.24-2.28-.18-.43-.36-.83-.55-1.18-.08-.16-.84-1.54-1.77-3.49-.27-.56-1.18-2.51-2.3-5.34-.78-1.98-1.21-3.23-1.55-4.28-1.04.73-2.27,1.19-3.56,1.29,1.27-.34,2.45-1.02,3.34-1.96-.03-.1-.07-.2-.1-.3-.2-.63-.35-1.27-.47-1.91-1.45,1.61-3.62,2.55-5.81,2.42,2.13-.27,4.14-1.46,5.14-3.38.19-.35.34-.72.46-1.09-.02-.65,0-1.29.06-1.94.12-1.24.31-4.24,1.32-5.7.44-.64,1.02-1.04,1.02-1.04.3-.2.57-.32.72-.38.4-.16.74-.21,1.03-.25.98-.13,2.01-.13,2.46-.13-.51-.45-1.07-.91-1.66-1.38-.47-.36-.93-.7-1.38-1.02-.24-.56-.81-1.29-1.51-2.19-.87-1.13-2.22-1.79-3.64-1.79h-6.56c-.56,0-1.11-.17-1.57-.48l-4.49-3.08,1.52,4.64c.36,1.1,1.39,1.85,2.56,1.85h5.88l-6.81,1.51c.3.39.64.88.99,1.45.12.2.25.42.37.65,0,0,.37.67.67,1.36,1.6,3.7.95,9.39.95,9.39-.17,1.5-.55,3.73-1.88,7.58-1.86,5.38-3.94,9.17-4.22,9.69-.07.13-.14.28-.21.42-2.41,1.01-4.87,1.88-7.36,2.63-.23-1-.4-1.92-.51-2.71-.28-1.91-1.17-3.67-2.57-5l-1.65-1.57c.3,2.23.15,4.51-.48,6.67.38-2.46.21-4.97-.52-7.28-.05-.17-.12-.34-.18-.51l-3.96-3.77c1.48,3.43,1.75,7.36.71,10.93.38-2.46.21-4.97-.52-7.28-.66-2.09-1.79-3.99-3.25-5.56-2.2,4.89-1.98,15.1-.09,21.09,1.99,6.32,5.48,10.89,9.52,14.09.21.17.43.33.65.49.11.54.22,1.08.36,1.62-.32-.24-.64-.47-.95-.72-.65.3-1.27.59-1.9.88-2.19,1.01-4.24,1.93-6.23,2.79-2.7,1.17-5.32,2.25-8.05,3.29.01.01.03.03.04.04,2.31,2.57,6.13,3.13,9.12,1.41.88-.51,1.74-1.01,2.58-1.51-1.26-.98-2.46-2.03-3.59-3.14,2.04,1.94,5.17,2.21,7.55.7.6-.38,1.19-.76,1.77-1.14-.4-.27-.79-.57-1.19-.86.44.29.97.41,1.48.35.02.07.04.14.07.21.14.4.3.79.45,1.18-1.82,1.32-3.53,2.55-5.18,3.71-2.4,1.68-4.68,3.24-7.04,4.75.02.01.03.02.05.04,2.66,2.12,6.49,1.96,9.02-.33.7-.63,1.38-1.26,2.04-1.88-1.37-.76-2.7-1.61-3.97-2.52,2.06,1.44,4.8,1.29,6.75-.23.22.4.46.8.7,1.19-.72.78-1.42,1.55-2.1,2.28-1.97,2.12-3.84,4.08-5.75,5.98.02.01.04.02.06.03,3.14,1.76,7.13.78,9.16-2.2.41-.6.81-1.19,1.2-1.78-1.58-.58-3.12-1.25-4.6-2.01,1.25.63,2.64.73,3.92.38.75.96,1.55,1.88,2.41,2.75,3.1,3.12,6.37,5.37,9.99,6.87.91.38,1.83.57,2.74.57s1.82-.19,2.73-.56c3.14-1.29,6-3.15,8.75-5.67,1.27-1.16,2.41-2.39,3.44-3.67,1.18.24,2.44.12,3.6-.44-1.51.74-3.08,1.4-4.69,1.96.35.53.72,1.07,1.09,1.61,2.03,2.97,6.01,3.95,9.16,2.19l.06-.03c-1.84-1.84-3.65-3.73-5.54-5.76-.61-.65-1.23-1.33-1.86-2.01.27-.41.52-.82.77-1.24,1.96,1.32,4.56,1.38,6.55.02-1.3.91-2.65,1.76-4.05,2.52.58.54,1.17,1.09,1.78,1.63,2.53,2.29,6.37,2.48,9.04.35l.05-.04c-2.25-1.45-4.44-2.93-6.72-4.53-1.56-1.1-3.18-2.26-4.89-3.5.23-.57.44-1.14.64-1.73.52-.03,1.04-.2,1.48-.52-.52.39-1.06.77-1.6,1.13.57.37,1.16.74,1.75,1.12,2.43,1.53,5.61,1.26,7.69-.7-1.16,1.12-2.38,2.18-3.67,3.16.71.42,1.43.84,2.17,1.27,3.01,1.73,6.85,1.19,9.17-1.39l.04-.04c-2.58-.98-5.06-2-7.61-3.1ZM115.34,79.09c.61,0,1.11.49,1.11,1.11s-.49,1.1-1.11,1.1-1.1-.49-1.1-1.1.49-1.11,1.1-1.11ZM132.62,129.09c-.44,7.86-3.63,14.49-9.44,19.83-2.45,2.25-5.16,4.08-8.25,5.36-1.46.6-2.86.6-4.32,0-3.61-1.49-6.7-3.73-9.43-6.49-3.04-3.07-5.28-6.65-6.71-10.73-1.16-3.3-1.64-6.71-1.64-10.2,0-3.13,0-6.27,0-9.4,0-.93.19-1.19,1.06-1.44,6.35-1.76,12.36-4.32,18.05-7.65.18-.11.37-.21.55-.31h.55c5.15,3.02,10.56,5.46,16.25,7.26.84.27,1.69.5,2.53.76.65.2.88.47.88,1.15,0,3.95.14,7.92-.08,11.86Z"/>
      </g>
    </g>
    <path class="st2" d="M112.25,165.53c-31.82,0-57.71-25.89-57.71-57.71s25.89-57.71,57.71-57.71,57.71,25.89,57.71,57.71-25.89,57.71-57.71,57.71ZM112.25,52.17c-30.69,0-55.66,24.97-55.66,55.66s24.97,55.66,55.66,55.66,55.66-24.97,55.66-55.66-24.97-55.66-55.66-55.66Z"/>
    <path class="st2" d="M112.25,187.42c-43.89,0-79.6-35.71-79.6-79.6S68.36,28.23,112.25,28.23s79.6,35.71,79.6,79.6-35.71,79.6-79.6,79.6ZM112.25,30.28c-42.76,0-77.55,34.79-77.55,77.55s34.79,77.55,77.55,77.55,77.55-34.79,77.55-77.55S155.01,30.28,112.25,30.28Z"/>
    <path class="st0" d="M95.64,137.89h.01c-.02-.05-.05-.1-.07-.15.02.05.04.1.06.15Z"/>
    <g>
      <path class="st2" d="M44.99,130.29c.15.45-.09.93-.54,1.08-.45.15-.93-.09-1.08-.54-.15-.45.09-.93.54-1.08s.93.09,1.08.54ZM53.49,128.36l-7.69,2.57-.55-1.64,7.69-2.57.55,1.64Z"/>
      <path class="st2" d="M51.56,120.71c.35,1.69-.28,2.77-.36,2.87l-1.3-.5c.07-.19.45-1.04.26-1.98-.16-.77-.65-1.19-1.23-1.07-.24.05-.42.2-.51.34-.4.6-.29,2.06-.95,3.07-.25.39-.65.79-1.37.94-1.43.3-2.6-.66-2.93-2.26-.33-1.57.29-2.6.35-2.68l1.24.54c-.06.12-.42.96-.25,1.76.15.7.58,1.13,1.08,1.03.24-.05.33-.14.43-.3.3-.46.32-2.17.97-3.16.3-.46.69-.79,1.43-.94,1.5-.31,2.77.61,3.14,2.35Z"/>
      <path class="st2" d="M43.37,111.21l6.71-.41.1,1.72-6.71.41.13,2.22-1.38.08-.37-6.15,1.38-.08.13,2.21Z"/>
      <path class="st2" d="M50.37,100.92l-1.73.46-.23,2.91,1.64.73-.14,1.73-7.85-3.56.13-1.72,8.31-2.31-.14,1.77ZM43.96,102.49l3.17,1.27.16-2.04-3.33.76Z"/>
      <path class="st2" d="M52.26,91.19l-6.07,2.01,5.26,1.27-.38,1.52-7.87-1.95.37-1.51,6.02-1.94-5.22-1.26.38-1.52,7.87,1.95-.35,1.43Z"/>
      <path class="st2" d="M55.18,80.99c.4,1,.03,1.95-.42,3.01l-.9,2.1-7.46-3.18,1.03-2.43c.37-.86.74-1.58,1.52-1.89.62-.25,1.14-.17,1.67.05,1.3.55,1.17,1.56,1.17,1.73.14-.17.83-1.15,2.12-.6.68.29,1.08.75,1.27,1.21ZM48.64,81.12l-.35.83,1.87.8.09-.21c.36-.85.9-1.81-.16-2.26-.93-.4-1.24.36-1.45.85ZM52.49,81.35c-.4.16-.57.46-.87,1.17l-.31.73,1.92.82.36-.85c.32-.75.29-1.01.17-1.3-.09-.22-.29-.41-.54-.52-.22-.1-.5-.13-.74-.04Z"/>
      <path class="st2" d="M60.15,72.48c.11.47.22,1.34-.53,2.54-.46.74-1.13,1.36-2.06,1.57-1,.23-1.81-.23-2.84-.87l-3.83-2.4.92-1.46,4.29,2.68c.39.24.86.5,1.37.38.3-.07.64-.32.9-.73.31-.49.29-.85.22-1.17-.11-.49-.49-.77-1.53-1.42l-3.65-2.28.89-1.42,3.87,2.42c1.23.77,1.78,1.27,1.99,2.16Z"/>
      <path class="st2" d="M63.48,69.15l-6.16-5.27,1.12-1.31,5.08,4.35,2.04-2.38,1.07.92-3.16,3.69Z"/>
      <path class="st2" d="M75.23,58.07c-1.82,1.38-4.18,1.18-5.75-.89-1.63-2.15-1.13-4.56.8-6.01,1.45-1.1,2.64-.93,2.75-.91l.09,1.35c-.11.01-.97-.04-1.91.67-1.17.89-1.46,2.4-.42,3.78,1.02,1.35,2.51,1.67,3.78.71.55-.42.79-.79.84-.88l-.84-1.11-1.21.92-.79-1.05,2.5-1.89,2.12,2.8s-.49,1.42-1.96,2.53Z"/>
      <path class="st2" d="M80.78,54.1l-3.84-7.14,4.32-2.32.66,1.22-2.83,1.52.89,1.66,2.65-1.43.64,1.2-2.65,1.43.98,1.82,2.91-1.56.67,1.24-4.41,2.37Z"/>
      <path class="st2" d="M88.5,50.26l-2.82-7.6,1.62-.6,2.33,6.28,2.94-1.09.49,1.32-4.56,1.69Z"/>
      <path class="st2" d="M95.41,38.93c-.46.11-.92-.16-1.03-.63s.16-.92.63-1.03c.46-.11.92.16,1.03.63.11.46-.16.92-.63,1.03ZM96.63,47.57l-1.93-7.88,1.68-.41,1.92,7.88-1.68.41Z"/>
      <path class="st2" d="M104.56,46.26v.35c.07-.02.15-.05.24-.07.66-.08,1.19.27,1.26.9.09.72-.5,1.24-1.14,1.32-.49.06-.91-.08-1.04-.18l.2-.56s.3.15.66.1c.48-.06.55-.38.53-.56-.03-.25-.24-.39-.55-.35-.25.03-.45.15-.51.2l-.43-.17.03-.94c-1.38.02-2.19-.55-2.27-.63l.6-1.25c.18.09,1,.54,1.95.42.78-.1,1.24-.55,1.17-1.14-.03-.24-.16-.43-.3-.54-.57-.44-2.03-.46-2.98-1.2-.37-.29-.74-.72-.83-1.44-.18-1.45.88-2.54,2.49-2.74,1.59-.2,2.56.5,2.64.57l-.64,1.19c-.12-.07-.92-.5-1.73-.4-.71.09-1.18.49-1.11,1,.03.24.12.34.26.46.43.34,2.13.5,3.07,1.23.43.34.73.76.82,1.5.18,1.47-.78,2.63-2.43,2.91Z"/>
      <path class="st2" d="M111.69,36.91c-.47,0-.86-.36-.86-.84s.36-.86.84-.86.86.36.86.84c0,.47-.36.86-.84.86ZM110.96,45.61l-.13-8.11,1.73-.03.13,8.11-1.73.03Z"/>
      <path class="st2" d="M123.88,46.61l.35-5.7-2.64,5.38-1.4-.2-1.12-5.91-1.16,5.59-1.5-.21,1.85-7.92,1.83.26,1.21,6.09,2.73-5.54,1.83.26-.35,8.13-1.6-.22Z"/>
      <path class="st2" d="M138.21,50.44c-.44.19-1.28.45-2.59-.09-.81-.33-1.53-.89-1.89-1.76-.4-.95-.08-1.82.37-2.94l1.71-4.19,1.6.65-1.91,4.68c-.17.43-.34.94-.14,1.41.12.29.42.58.87.76.54.22.89.14,1.19.01.46-.19.67-.62,1.14-1.75l1.63-3.98,1.55.63-1.73,4.23c-.55,1.34-.95,1.97-1.79,2.33ZM137.89,41.7c-.44-.18-.65-.67-.47-1.11s.67-.65,1.11-.47.65.67.47,1.11c-.18.44-.67.65-1.11.47ZM140.08,42.59c-.44-.18-.65-.67-.47-1.11.18-.44.67-.65,1.11-.47.44.18.65.67.47,1.11-.18.44-.67.65-1.11.47Z"/>
      <path class="st2" d="M146.26,55.69l-.08-6.39-2.8,4.62-1.33-.82,4.24-6.9,1.32.81.02,6.32,2.78-4.59,1.33.82-4.24,6.9-1.25-.77Z"/>
      <path class="st2" d="M150.6,58.83l5.09-6.31,1.34,1.08-5.09,6.31-1.34-1.08ZM156.72,52.62c-.37-.3-.43-.83-.13-1.2s.83-.43,1.2-.13c.37.3.43.83.13,1.2-.3.37-.83.43-1.2.13Z"/>
      <path class="st2" d="M157.63,65.28l-1.16-1.21,3.9-7.65,1.21,1.25-3.06,5.61,5.75-2.81,1.17,1.22-7.8,3.59Z"/>
      <path class="st2" d="M161.62,69.9l6.61-4.71,2.85,4-1.13.8-1.86-2.61-1.53,1.09,1.75,2.46-1.11.79-1.75-2.46-1.68,1.2,1.92,2.69-1.15.82-2.91-4.08Z"/>
      <path class="st2" d="M168.36,80.86l1.51-1.88c.72-.89.55-1.13.25-1.71l-.09-.17-2.85,1.46-.77-1.5,7.21-3.7.95,1.85c.49.96.96,1.79.64,2.79-.16.51-.51,1-1.14,1.32-.89.45-1.94.35-2.65-.65.32.81-.44,1.59-.86,2.12l-1.36,1.69-.83-1.62ZM173.77,77.25c.13-.41-.07-.77-.36-1.33l-.23-.44-1.98,1.01.31.61c.26.51.46.72.81.83.26.08.63.03.88-.1.29-.15.5-.38.56-.58Z"/>
      <path class="st2" d="M170.96,87.75c-.55-1.64-.05-2.78.01-2.89l1.35.34c-.05.2-.33,1.09-.02,2,.25.75.79,1.11,1.35.92.23-.08.39-.25.47-.4.32-.65.04-2.08.57-3.16.21-.42.55-.87,1.25-1.1,1.38-.47,2.66.35,3.18,1.89.51,1.52.02,2.61-.02,2.7l-1.3-.38c.05-.13.3-1,.04-1.77-.23-.68-.72-1.06-1.2-.89-.23.08-.31.18-.4.35-.24.49-.06,2.19-.58,3.25-.24.49-.59.87-1.31,1.11-1.45.49-2.83-.28-3.4-1.96Z"/>
      <path class="st2" d="M172.95,94.03l7.93-1.69.36,1.69-7.93,1.69-.36-1.69ZM181.62,93.06c-.1-.46.19-.91.65-1.01s.91.19,1.01.65c.1.46-.19.91-.65,1.01-.46.1-.91-.19-1.01-.66Z"/>
      <path class="st2" d="M181.01,102.42l-6.7.61-.16-1.72,6.7-.61-.2-2.22,1.38-.12.56,6.14-1.38.12-.2-2.2Z"/>
      <path class="st2" d="M174.53,108.56l8.09.39-.24,4.9-1.38-.07.16-3.2-1.88-.09-.15,3.01-1.36-.07.15-3.01-2.06-.1-.16,3.3-1.41-.07.24-5Z"/>
      <path class="st2" d="M173.22,119.35c.33-1.7,1.32-2.45,1.44-2.51l1,.96c-.14.15-.82.78-1,1.73-.15.78.14,1.35.72,1.46.24.05.46-.02.6-.12.6-.41,1.06-1.79,2.06-2.47.38-.26.91-.48,1.63-.34,1.43.28,2.14,1.61,1.84,3.21-.3,1.58-1.27,2.28-1.35,2.34l-.94-.97c.1-.09.76-.72.91-1.52.14-.7-.1-1.27-.6-1.37-.24-.05-.36,0-.52.11-.46.31-1.13,1.88-2.11,2.54-.46.31-.94.46-1.68.32-1.51-.29-2.32-1.64-1.99-3.38Z"/>
      <path class="st2" d="M171.85,125.81l7.73,2.46-.52,1.65-7.73-2.46.52-1.65ZM179.86,129.26c.14-.45.62-.7,1.07-.55.45.14.7.62.55,1.07-.14.45-.62.7-1.07.55-.45-.14-.7-.62-.55-1.07Z"/>
    </g>
    <g>
      <path class="st2" d="M93.18,177.55l.28-1.22c1.11-.53,2.55-1.35,3.25-1.79.76-.47,1.36-.99,1.51-1.67.16-.7-.23-1.28-.96-1.45-.91-.21-1.89.36-2.01.42l-.61-1.17s1.25-1.02,3.11-.59c1.53.36,2.49,1.58,2.13,3.13-.26,1.14-.99,1.74-1.94,2.33-1.15.72-2.07,1.1-2.18,1.15l3.32.77-.32,1.37-5.58-1.3Z"/>
      <path class="st2" d="M106.68,180.03c-2.08-.16-3.22-1.93-3.02-4.51.19-2.52,1.62-4.12,3.67-3.96,2.06.16,3.24,1.95,3.05,4.46-.2,2.61-1.59,4.17-3.69,4.01ZM107.24,172.94c-1.01-.08-1.77.86-1.91,2.73-.15,1.9.44,2.88,1.43,2.96,1.04.08,1.78-.8,1.92-2.7.15-1.91-.46-2.91-1.44-2.99Z"/>
      <path class="st2" d="M117.63,180.04c-2.08.16-3.47-1.42-3.66-4-.19-2.52.98-4.31,3.03-4.47,2.06-.15,3.5,1.44,3.68,3.95.19,2.6-.94,4.36-3.05,4.52ZM117.12,172.95c-1.01.08-1.62,1.12-1.48,2.99.14,1.9.87,2.79,1.86,2.71,1.04-.08,1.64-1.06,1.5-2.96-.14-1.91-.89-2.81-1.87-2.74Z"/>
      <path class="st2" d="M128.49,178.4c-1.81.42-3.26-.24-3.61-1.78-.19-.83.08-1.7.84-2.14-.77-.09-1.23-.7-1.39-1.4-.32-1.41.59-2.57,2.24-2.94,1.66-.38,3.01.26,3.33,1.65.18.81-.06,1.52-.64,1.88.89.08,1.48.7,1.68,1.57.35,1.54-.64,2.74-2.45,3.16ZM126.88,171.47c-.79.18-1.14.78-1.02,1.29.13.58.69.94,1.53.75.79-.18,1.13-.73,1-1.31-.12-.54-.66-.92-1.5-.73ZM127.65,174.76c-1.02.23-1.4.82-1.25,1.47.15.66.79,1.06,1.79.84.97-.22,1.36-.85,1.21-1.51-.15-.66-.77-1.02-1.75-.79Z"/>
    </g>
  </g>
  <path class="st2" d="M224.17,51.67"/>
  <g>
    <path class="st2" d="M238.89,159.25v-3.93c-1.8,1.8-3.37,3.04-4.71,3.7-1.34.66-2.93,1-4.78,1-3.08,0-5.54-.89-7.36-2.66-1.83-1.77-2.74-4.15-2.74-7.13v-15.44c0-1.33-.24-2.26-.73-2.79-.48-.53-1.49-.98-3.01-1.34v-.86h13.96v.86c-1.49.34-2.49.79-2.99,1.34-.5.55-.75,1.56-.75,3.04v16.47c0,1.8.49,3.22,1.48,4.24.98,1.02,2.34,1.54,4.06,1.54,2.43,0,4.95-1.36,7.57-4.08v-18.41c0-1.33-.24-2.25-.71-2.78-.48-.52-1.48-.97-3.02-1.35v-.86h13.91v.86c-1.42.3-2.39.73-2.91,1.29-.52.57-.78,1.71-.78,3.43v18.88c0,1.33.24,2.25.71,2.78s1.47.97,2.98,1.35v.86h-10.18Z"/>
    <path class="st2" d="M273.4,130.66v-.86h9.93v.86c-2.85.16-4.28,1.77-4.28,4.82v24.12h-.96l-21.19-23.87v18c0,1.57.29,2.67.86,3.3.57.63,1.73,1.08,3.47,1.36v.86h-10.15v-.86c1.38-.21,2.36-.68,2.96-1.41.6-.73.9-1.86.9-3.4v-19.99c-1.15-1.18-1.94-1.93-2.37-2.26-.43-.33-.95-.55-1.54-.66v-.86h8.85l17.21,19.74v-13.25c0-1.95-.26-3.3-.77-4.04-.51-.75-1.49-1.27-2.92-1.59Z"/>
    <path class="st2" d="M300.13,129.8v.86c-1.45.33-2.43.77-2.93,1.32-.5.55-.76,1.68-.76,3.4v18.88c0,1.33.24,2.25.71,2.78.47.52,1.47.97,2.98,1.35v.86h-13.91v-.86c1.05-.26,1.83-.55,2.35-.86s.88-.7,1.08-1.18.31-1.38.31-2.73v-18.83c0-1.33-.24-2.26-.72-2.79-.48-.53-1.49-.98-3.01-1.34v-.86h13.91Z"/>
    <path class="st2" d="M332.68,129.8v.86c-1.2.25-2.17.74-2.91,1.49-.74.75-1.47,2.06-2.19,3.95l-9.08,23.92h-.97l-9.29-23.63c-.85-2.15-1.61-3.59-2.29-4.33-.67-.74-1.64-1.2-2.9-1.4v-.86h13.4v.86c-1.64.28-2.46.99-2.46,2.13,0,.52.17,1.22.52,2.09l5.86,14.96,5.24-14.14c.31-.87.47-1.61.47-2.21,0-1.56-1.05-2.5-3.16-2.83v-.86h9.76Z"/>
    <path class="st2" d="M354.46,139.95h.96v9.12h-.96c-.34-2.51-1.71-3.76-4.08-3.76h-5.19v8.65c0,1.33.3,2.26.91,2.8.61.54,1.64.81,3.12.81h1.72c2.88,0,4.94-1.83,6.18-5.48h.86l-.54,7.15h-22.42v-.86c1.48-.31,2.47-.76,2.96-1.34.49-.58.73-1.71.73-3.38v-18.93c0-1.38-.25-2.33-.76-2.86-.5-.53-1.48-.94-2.93-1.22v-.86h22.08v6.54h-.86c-.49-1.92-1.1-3.21-1.83-3.87-.73-.66-1.9-1-3.5-1h-5.7v12.17h5.19c1.18,0,2.08-.28,2.7-.84.62-.56,1.08-1.51,1.38-2.85Z"/>
    <path class="st2" d="M360.38,159.25v-.86c2.49-.2,3.74-1.45,3.74-3.76v-19.94c0-1.36-.26-2.3-.77-2.83-.52-.52-1.5-.93-2.96-1.2v-.86h14.01c3.67,0,6.49.65,8.47,1.94,1.98,1.3,2.96,3.11,2.96,5.46,0,1.69-.51,3.14-1.54,4.35-1.03,1.21-2.5,2.1-4.42,2.66v.1c.69.16,1.43.73,2.24,1.71.8.98,1.97,2.89,3.5,5.74,1.49,2.77,2.58,4.52,3.26,5.26.68.74,1.61,1.2,2.79,1.38v.86h-8.49c-1.11-1.32-2.54-3.7-4.28-7.16-1.2-2.37-2.09-3.95-2.67-4.74-.58-.79-1.19-1.34-1.82-1.66-.63-.32-1.89-.48-3.77-.48v9.05c0,1.3.29,2.26.86,2.89.57.63,1.55,1.04,2.93,1.24v.86h-14.01ZM372.63,131.47h-2.02v12.07c.51.03.98.05,1.43.05,2.34,0,4.05-.5,5.13-1.51,1.07-1.01,1.61-2.6,1.61-4.78,0-3.88-2.05-5.83-6.15-5.83Z"/>
    <path class="st2" d="M411.27,129.04v7.77h-.86c-.57-1.72-1.56-3.17-2.96-4.34-1.4-1.17-2.84-1.76-4.33-1.76-1.34,0-2.48.38-3.42,1.16-.94.77-1.41,1.71-1.41,2.83,0,.54.12,1.08.37,1.61.25.53.6,1.03,1.07,1.49.47.46,1.97,1.48,4.52,3.06,2.59,1.59,4.27,2.69,5.02,3.31s1.47,1.42,2.16,2.39c1.05,1.49,1.57,3.13,1.57,4.9,0,2.62-.92,4.71-2.77,6.25s-4.08,2.31-6.7,2.31c-1.41,0-3.09-.25-5.04-.76-1.03-.26-1.75-.39-2.16-.39-.69,0-1.19.32-1.5.96h-.86v-8.87h.86c.44,2.29,1.36,4.1,2.75,5.42,1.39,1.32,3.11,1.98,5.14,1.98,1.57,0,2.87-.39,3.9-1.18,1.02-.79,1.54-1.79,1.54-3,0-.98-.33-1.91-.98-2.79-.66-.88-2.41-2.16-5.27-3.86-2.63-1.57-4.36-2.78-5.21-3.63-.85-.85-1.49-1.81-1.92-2.87-.43-1.06-.65-2.18-.65-3.36,0-2.53.86-4.59,2.59-6.2s3.95-2.41,6.66-2.41c.83,0,1.84.14,3.02.42,1.18.26,2.01.39,2.5.39s.98-.27,1.52-.81h.86Z"/>
    <path class="st2" d="M431.24,129.8v.86c-1.45.33-2.43.77-2.93,1.32-.5.55-.76,1.68-.76,3.4v18.88c0,1.33.24,2.25.71,2.78.47.52,1.47.97,2.98,1.35v.86h-13.91v-.86c1.05-.26,1.83-.55,2.35-.86s.88-.7,1.08-1.18.31-1.38.31-2.73v-18.83c0-1.33-.24-2.26-.72-2.79-.48-.53-1.49-.98-3.01-1.34v-.86h13.91Z"/>
    <path class="st2" d="M454.54,158.39v.86h-13.82v-.86c1.45-.28,2.43-.7,2.93-1.28s.76-1.62.76-3.15v-22.5h-2.94c-1.78,0-3.19.39-4.23,1.16-1.04.77-1.81,1.99-2.32,3.66h-.86l.29-7.1h.91c.64.41,1.61.61,2.9.61h19c1.33,0,2.3-.2,2.9-.61h.91l.3,7.1h-.86c-.51-1.67-1.28-2.89-2.32-3.66-1.04-.77-2.45-1.16-4.23-1.16h-2.94v22.54c0,1.44.25,2.47.76,3.09.51.61,1.46,1.04,2.85,1.29Z"/>
    <path class="st2" d="M482.94,139.95h.96v9.12h-.96c-.34-2.51-1.71-3.76-4.08-3.76h-5.19v8.65c0,1.33.3,2.26.91,2.8.61.54,1.64.81,3.12.81h1.72c2.88,0,4.94-1.83,6.18-5.48h.86l-.54,7.15h-22.42v-.86c1.48-.31,2.47-.76,2.96-1.34.49-.58.73-1.71.73-3.38v-18.93c0-1.38-.25-2.33-.76-2.86-.5-.53-1.48-.94-2.93-1.22v-.86h22.08v6.54h-.86c-.49-1.92-1.1-3.21-1.83-3.87-.73-.66-1.9-1-3.5-1h-5.7v12.17h5.19c1.18,0,2.08-.28,2.7-.84.62-.56,1.08-1.51,1.38-2.85Z"/>
    <path class="st2" d="M506.73,129.04v7.77h-.86c-.57-1.72-1.56-3.17-2.96-4.34-1.4-1.17-2.84-1.76-4.33-1.76-1.34,0-2.48.38-3.42,1.16s-1.41,1.71-1.41,2.83c0,.54.12,1.08.37,1.61.25.53.6,1.03,1.07,1.49.47.46,1.97,1.48,4.52,3.06,2.59,1.59,4.27,2.69,5.02,3.31s1.47,1.42,2.16,2.39c1.05,1.49,1.57,3.13,1.57,4.9,0,2.62-.92,4.71-2.77,6.25s-4.08,2.31-6.7,2.31c-1.41,0-3.09-.25-5.04-.76-1.03-.26-1.75-.39-2.16-.39-.69,0-1.19.32-1.5.96h-.86v-8.87h.86c.44,2.29,1.36,4.1,2.75,5.42,1.39,1.32,3.11,1.98,5.14,1.98,1.57,0,2.87-.39,3.9-1.18,1.02-.79,1.54-1.79,1.54-3,0-.98-.33-1.91-.98-2.79-.66-.88-2.41-2.16-5.27-3.86-2.63-1.57-4.36-2.78-5.21-3.63-.85-.85-1.49-1.81-1.92-2.87-.43-1.06-.65-2.18-.65-3.36,0-2.53.86-4.59,2.59-6.2s3.95-2.41,6.66-2.41c.83,0,1.84.14,3.02.42,1.18.26,2.01.39,2.5.39s.98-.27,1.52-.81h.86Z"/>
    <path class="st2" d="M526.7,129.8v.86c-1.45.33-2.43.77-2.93,1.32-.5.55-.76,1.68-.76,3.4v18.88c0,1.33.24,2.25.71,2.78.47.52,1.47.97,2.98,1.35v.86h-13.91v-.86c1.05-.26,1.83-.55,2.35-.86s.88-.7,1.08-1.18.31-1.38.31-2.73v-18.83c0-1.33-.24-2.26-.72-2.79-.48-.53-1.49-.98-3.01-1.34v-.86h13.91Z"/>
  </g>
  <circle class="st2" cx="313.23" cy="80.85" r="3.11"/>
  <circle class="st2" cx="335.43" cy="121.61" r="3.11"/>
  <circle class="st2" cx="227.3" cy="124.72" r="3.11"/>
  <circle class="st2" cx="238.05" cy="124.72" r="3.11"/>
  <circle class="st2" cx="292.52" cy="124.72" r="3.11"/>
  <circle class="st2" cx="424.28" cy="124.72" r="3.11"/>
  <circle class="st2" cx="520.01" cy="124.72" r="3.11"/>
  <circle class="st2" cx="357.21" cy="80.85" r="3.11"/>
  <path class="st1" d="M333.16,106.99"/>
  <g>
    <path class="st2" d="M245.34,85.47v8.7h-.96c-.92-2.37-2.34-4.25-4.26-5.65s-4.05-2.1-6.39-2.1c-3.14,0-5.57,1.34-7.29,4.02s-2.58,6.45-2.58,11.32c0,4.49.85,7.91,2.56,10.26,1.71,2.35,4.18,3.52,7.41,3.52s4.66-1.1,4.66-3.29v-4.61c0-2.12-1.06-3.39-3.19-3.81v-.91h13.06v.91c-1.14.31-1.93.81-2.37,1.49-.44.68-.66,1.74-.66,3.17v6.58c-3.11,1.49-7.12,2.23-12.05,2.23-3.28,0-6.19-.68-8.73-2.05-2.54-1.36-4.53-3.3-5.97-5.82-1.44-2.51-2.16-5.25-2.16-8.23,0-4.75,1.6-8.7,4.79-11.84,3.2-3.14,7.22-4.71,12.07-4.71,1.92,0,4.01.41,6.27,1.22,1.19.43,2.06.65,2.59.65.79,0,1.54-.35,2.23-1.06h.96Z"/>
    <path class="st2" d="M271.82,96.17h1.01v9.61h-1.01c-.36-2.64-1.8-3.96-4.3-3.96h-5.47v9.12c0,1.4.32,2.38.96,2.95.64.57,1.73.85,3.28.85h1.81c3.03,0,5.2-1.93,6.51-5.78h.91l-.57,7.54h-23.63v-.91c1.56-.33,2.6-.8,3.11-1.41.51-.61.77-1.8.77-3.56v-19.95c0-1.45-.27-2.46-.8-3.02-.53-.56-1.56-.99-3.09-1.28v-.91h23.26v6.89h-.91c-.52-2.02-1.16-3.38-1.93-4.08-.77-.7-2-1.05-3.69-1.05h-6.01v12.82h5.47c1.24,0,2.19-.3,2.85-.89.66-.59,1.14-1.59,1.45-3Z"/>
    <path class="st2" d="M293.14,85.47v.91c-1.66.41-2.73.89-3.21,1.42-.48.54-.73,1.43-.73,2.69v20.91c0,1.3.34,2.18,1.02,2.64s1.97.7,3.87.7,3.53-.44,4.62-1.31c1.1-.87,2.24-2.53,3.43-4.99h.91l-.91,8.06h-23.68v-.91c1.65-.41,2.71-.91,3.18-1.48.47-.57.71-1.75.71-3.55v-19.84c0-1.4-.25-2.38-.76-2.94-.51-.56-1.55-1.03-3.13-1.41v-.91h14.66Z"/>
    <path class="st2" d="M320.68,85.47v.91c-1.53.35-2.56.81-3.09,1.39s-.8,1.77-.8,3.59v19.9c0,1.4.25,2.38.75,2.93.5.55,1.54,1.03,3.14,1.42v.91h-14.66v-.91c1.11-.28,1.93-.58,2.47-.91.54-.33.92-.74,1.14-1.24.22-.5.32-1.46.32-2.88v-19.84c0-1.4-.26-2.38-.76-2.94-.51-.56-1.57-1.03-3.17-1.41v-.91h14.66Z"/>
    <path class="st2" d="M343.32,84.66v8.19h-.91c-.6-1.81-1.64-3.34-3.12-4.57-1.47-1.23-2.99-1.85-4.56-1.85-1.41,0-2.62.41-3.61,1.22-.99.81-1.49,1.8-1.49,2.98,0,.57.13,1.14.39,1.7.26.56.63,1.08,1.13,1.57.49.48,2.08,1.56,4.76,3.23,2.73,1.67,4.49,2.83,5.29,3.49.79.66,1.55,1.5,2.28,2.51,1.1,1.57,1.65,3.29,1.65,5.16,0,2.77-.97,4.96-2.91,6.59-1.94,1.62-4.3,2.44-7.06,2.44-1.49,0-3.26-.27-5.31-.8-1.09-.28-1.85-.41-2.28-.41-.73,0-1.25.34-1.58,1.01h-.91v-9.35h.91c.47,2.42,1.43,4.32,2.9,5.71,1.47,1.39,3.27,2.09,5.41,2.09,1.66,0,3.03-.41,4.11-1.24,1.08-.83,1.62-1.88,1.62-3.16,0-1.04-.35-2.02-1.04-2.94-.69-.92-2.54-2.28-5.55-4.07-2.77-1.65-4.6-2.93-5.49-3.83-.9-.9-1.57-1.91-2.03-3.02-.46-1.12-.68-2.3-.68-3.54,0-2.66.91-4.84,2.73-6.54s4.16-2.54,7.02-2.54c.88,0,1.94.15,3.18.44,1.24.28,2.12.41,2.64.41s1.03-.29,1.6-.85h.91Z"/>
    <path class="st2" d="M364.36,85.47v.91c-1.53.35-2.56.81-3.09,1.39-.53.58-.8,1.77-.8,3.59v19.9c0,1.4.25,2.38.75,2.93.5.55,1.54,1.03,3.14,1.42v.91h-14.66v-.91c1.11-.28,1.93-.58,2.47-.91.54-.33.92-.74,1.14-1.24.22-.5.32-1.46.32-2.88v-19.84c0-1.4-.26-2.38-.76-2.94-.51-.56-1.57-1.03-3.17-1.41v-.91h14.66Z"/>
    <path class="st2" d="M409.82,85.47v.91c-1.26.22-2.18.63-2.75,1.2-.57.58-.85,1.4-.85,2.48,0,.4.02.85.09,1.35l2.81,19.38c.21,1.42.69,2.5,1.44,3.26.75.76,1.85,1.28,3.3,1.55v.91h-15.34v-.91c1.28-.33,2.19-.84,2.75-1.53.55-.69.83-1.68.83-2.98,0-.64-.06-1.42-.18-2.33l-2.54-17.72-10.21,25.47h-1.11l-10.08-25.47-2.69,18.24c-.1.73-.16,1.38-.16,1.97,0,2.71,1.27,4.16,3.81,4.35v.91h-11.24v-.91c1.64-.07,2.88-.62,3.7-1.65.83-1.03,1.43-2.76,1.81-5.19l3.06-20.26c-1.31-1.36-2.82-2.07-4.51-2.12v-.91h11.23l8.1,20.46,8.21-20.46h10.52Z"/>
  </g>
  <g>
    <rect class="st2" x="217.96" y="51.8" width="2.46" height="2.49"/>
    <g>
      <path class="st2" d="M217.96,73.61v-18.26h2.46v18.26h-2.46Z"/>
      <path class="st2" d="M230.52,74c-3.23,0-5.39-1.75-5.61-1.97l1.18-1.7c.33.22,2.11,1.56,4.32,1.56s3.56-1.34,3.56-3.01c0-2-2.33-2.98-4.3-3.94-2.33-1.12-4.24-2.33-4.24-5.01,0-2.9,2.35-4.93,5.72-4.93s5.04,1.67,5.2,1.86l-1.23,1.59c-.22-.19-1.67-1.37-3.8-1.37-2,0-3.42.99-3.42,2.63,0,1.72,1.61,2.27,3.42,3.2,1.61.82,5.2,2.16,5.2,5.75,0,3.01-2.22,5.34-5.99,5.34Z"/>
      <path class="st2" d="M247.59,57.38v16.23h-2.46v-16.23h-5.36v-2.03h13.16v2.03h-5.34Z"/>
      <path class="st2" d="M265.98,73.61l-1.67-4.76h-7.53l-1.67,4.76h-2.46l6.62-18.26h2.6l6.68,18.26h-2.57ZM260.54,57.96l-3.07,8.89h6.16l-3.09-8.89Z"/>
      <path class="st2" d="M283.03,73.61l-8.62-14.53.05,14.53h-2.24v-18.26h2.44l8.62,14.59-.05-14.59h2.24v18.26h-2.44Z"/>
      <path class="st2" d="M301.56,71.91c-1.75,1.75-4.05,1.7-7.33,1.7h-3.23v-18.26h5.04c1.86,0,3.59.08,4.9,1.4.99.99,1.42,2.14,1.42,3.5,0,2.85-2.08,3.86-2.93,4,1.83.27,3.5,1.51,3.5,4.08,0,1.45-.49,2.71-1.37,3.58ZM299.17,58.29c-.99-1.07-2.71-.99-4.22-.99h-1.59v6.13h1.4c1.51,0,3.23-.05,4.27-1.01.55-.49.85-1.18.85-2.11,0-.82-.25-1.53-.71-2.03ZM299.61,66.33c-1.09-1.09-2.87-1.01-4.74-1.01h-1.5v6.3h2.03c2.13,0,3.26-.16,4.24-1.15.52-.52.79-1.37.79-2.08s-.22-1.45-.82-2.05Z"/>
      <path class="st2" d="M319.1,72.16c-1.01,1.01-2.6,1.81-4.98,1.81-1.94,0-3.8-.6-5.06-1.86-1.64-1.64-1.59-3.72-1.59-5.53v-11.22h2.46v11.5c0,1.4-.05,2.76,1.04,3.86.74.74,1.89,1.15,3.23,1.15s2.35-.47,3.01-1.12c1.23-1.23,1.12-2.63,1.12-5.72v-9.66h2.41v9.28c0,3.39.11,5.78-1.64,7.53Z"/>
      <path class="st2" d="M326.02,73.61v-18.26h2.46v16.18h7.58v2.08h-10.04Z"/>
    </g>
  </g>
</svg>